<svg width="16" height="16" viewBox="0 0 16 16" fill="none" xmlns="http://www.w3.org/2000/svg">
<path d="M8 0.000976562L9.66564 1.24322L11.7178 0.917328L12.6153 2.79134L14.5839 3.45646L14.5077 5.53293L15.9417 7.03668L14.9093 8.83991L15.4801 10.8378L13.728 11.9547L13.305 13.9891L11.2345 14.1638L9.91453 15.7685L8 14.961L6.08547 15.7685L4.76553 14.1638L2.69502 13.9891L2.27203 11.9547L0.51987 10.8378L1.09075 8.83991L0.0583291 7.03668L1.49229 5.53293L1.41613 3.45646L3.38467 2.79134L4.28221 0.917328L6.33436 1.24322L8 0.000976562Z" fill="#1A66FF"/>
<path d="M6.57778 9.73654L5.02222 8.18098C4.94007 8.0978 4.82802 8.05099 4.71111 8.05099C4.5942 8.05099 4.48216 8.0978 4.4 8.18098C4.22667 8.35431 4.22667 8.62987 4.4 8.8032L6.26222 10.6654C6.43556 10.8388 6.71556 10.8388 6.88889 10.6654L11.6 5.95876C11.7733 5.78542 11.7733 5.50987 11.6 5.33653C11.5178 5.25336 11.4058 5.20654 11.2889 5.20654C11.172 5.20654 11.0599 5.25336 10.9778 5.33653L6.57778 9.73654Z" fill="white"/>
</svg>
