<svg width="16" height="16" viewBox="0 0 16 16" fill="none" xmlns="http://www.w3.org/2000/svg">
<path d="M3.47257 8.66666H10.9192L7.66591 11.92C7.40591 12.18 7.40591 12.6067 7.66591 12.8667C7.92591 13.1267 8.34591 13.1267 8.60591 12.8667L12.9992 8.47333C13.2592 8.21333 13.2592 7.79333 12.9992 7.53333L8.61258 3.13333C8.48802 3.00849 8.31892 2.93834 8.14258 2.93834C7.96623 2.93834 7.79713 3.00849 7.67257 3.13333C7.41258 3.39333 7.41258 3.81333 7.67257 4.07333L10.9192 7.33333H3.47257C3.10591 7.33333 2.80591 7.63333 2.80591 8C2.80591 8.36666 3.10591 8.66666 3.47257 8.66666Z" fill="white"/>
</svg>
