<svg width="16" height="17" viewBox="0 0 16 17" fill="none" xmlns="http://www.w3.org/2000/svg">
<path fill-rule="evenodd" clip-rule="evenodd" d="M6.66678 3.43701C3.72012 3.43701 1.33345 5.82368 1.33345 8.77034C1.33345 11.717 3.72012 14.1037 6.66678 14.1037C9.61345 14.1037 12.0001 11.717 12.0001 8.77034C12.0001 5.82368 9.61345 3.43701 6.66678 3.43701ZM13.3335 8.10368V6.10368C13.3335 5.73701 13.6335 5.43701 14.0001 5.43701C14.3668 5.43701 14.6668 5.73701 14.6668 6.10368V8.10368C14.6668 8.47035 14.3668 8.77034 14.0001 8.77034C13.6335 8.77034 13.3335 8.47035 13.3335 8.10368ZM14.6668 10.1037V11.437H13.3335V10.1037H14.6668ZM5.33345 8.77034C5.33345 9.50368 5.93345 10.1037 6.66678 10.1037C7.40012 10.1037 8.00012 9.50368 8.00012 8.77034C8.00012 8.03701 7.40012 7.43701 6.66678 7.43701C5.93345 7.43701 5.33345 8.03701 5.33345 8.77034Z" fill="#FF7F37"/>
</svg>
