<svg width="328" height="44" viewBox="0 0 328 44" fill="none" xmlns="http://www.w3.org/2000/svg">
<g clip-path="url(#clip0_537_2710)">
<g opacity="0.3">
<path d="M33.8375 37.2625C31.2837 36.5988 30.4625 35.9125 30.4625 34.8438C30.4625 33.6175 31.5987 32.7625 33.5 32.7625C35.0975 32.7625 35.8962 33.37 36.1887 34.3375C36.3237 34.7875 36.695 35.125 37.1675 35.125H37.505C38.2475 35.125 38.7762 34.3938 38.5175 33.6962C38.045 32.3688 36.9425 31.2663 35.1875 30.8388V30.0625C35.1875 29.1288 34.4337 28.375 33.5 28.375C32.5662 28.375 31.8125 29.1288 31.8125 30.0625V30.805C29.63 31.2775 27.875 32.695 27.875 34.8663C27.875 37.465 30.0237 38.7587 33.1625 39.5125C35.975 40.1875 36.5375 41.1775 36.5375 42.2238C36.5375 43 35.9862 44.2375 33.5 44.2375C31.6437 44.2375 30.6875 43.5738 30.3162 42.6287C30.1475 42.19 29.765 41.875 29.3037 41.875H28.9887C28.235 41.875 27.7062 42.64 27.9875 43.3375C28.6287 44.9013 30.125 45.8237 31.8125 46.1838V46.9375C31.8125 47.8713 32.5662 48.625 33.5 48.625C34.4337 48.625 35.1875 47.8713 35.1875 46.9375V46.2063C37.3812 45.79 39.125 44.5187 39.125 42.2125C39.125 39.0175 36.3912 37.9263 33.8375 37.2625Z" fill="#76F536"/>
<path d="M19.7375 10.6292C17.9404 10.1621 17.3625 9.67917 17.3625 8.92708C17.3625 8.06417 18.1621 7.4625 19.5 7.4625C20.6242 7.4625 21.1862 7.89 21.3921 8.57083C21.4871 8.8875 21.7483 9.125 22.0808 9.125H22.3183C22.8408 9.125 23.2129 8.61042 23.0308 8.11958C22.6983 7.18542 21.9225 6.40958 20.6875 6.10875V5.5625C20.6875 4.90542 20.1571 4.375 19.5 4.375C18.8429 4.375 18.3125 4.90542 18.3125 5.5625V6.085C16.7767 6.4175 15.5417 7.415 15.5417 8.94292C15.5417 10.7717 17.0537 11.6821 19.2625 12.2125C21.2417 12.6875 21.6375 13.3842 21.6375 14.1204C21.6375 14.6667 21.2496 15.5375 19.5 15.5375C18.1937 15.5375 17.5208 15.0704 17.2596 14.4054C17.1408 14.0967 16.8717 13.875 16.5471 13.875H16.3254C15.795 13.875 15.4229 14.4133 15.6208 14.9042C16.0721 16.0046 17.125 16.6538 18.3125 16.9071V17.4375C18.3125 18.0946 18.8429 18.625 19.5 18.625C20.1571 18.625 20.6875 18.0946 20.6875 17.4375V16.9229C22.2312 16.63 23.4583 15.7354 23.4583 14.1125C23.4583 11.8642 21.5346 11.0963 19.7375 10.6292Z" fill="#76F536"/>
<path d="M280.737 15.6292C278.94 15.1621 278.362 14.6792 278.362 13.9271C278.362 13.0642 279.162 12.4625 280.5 12.4625C281.624 12.4625 282.186 12.89 282.392 13.5708C282.487 13.8875 282.748 14.125 283.081 14.125H283.318C283.841 14.125 284.213 13.6104 284.031 13.1196C283.698 12.1854 282.922 11.4096 281.687 11.1088V10.5625C281.687 9.90542 281.157 9.375 280.5 9.375C279.843 9.375 279.312 9.90542 279.312 10.5625V11.085C277.777 11.4175 276.542 12.415 276.542 13.9429C276.542 15.7717 278.054 16.6821 280.262 17.2125C282.242 17.6875 282.637 18.3842 282.637 19.1204C282.637 19.6667 282.25 20.5375 280.5 20.5375C279.194 20.5375 278.521 20.0704 278.26 19.4054C278.141 19.0967 277.872 18.875 277.547 18.875H277.325C276.795 18.875 276.423 19.4133 276.621 19.9042C277.072 21.0046 278.125 21.6538 279.312 21.9071V22.4375C279.312 23.0946 279.843 23.625 280.5 23.625C281.157 23.625 281.687 23.0946 281.687 22.4375V21.9229C283.231 21.63 284.458 20.7354 284.458 19.1125C284.458 16.8642 282.535 16.0963 280.737 15.6292Z" fill="#76F536"/>
<path d="M322.687 36.8125C321.269 36.4438 320.812 36.0625 320.812 35.4688C320.812 34.7875 321.444 34.3125 322.5 34.3125C323.387 34.3125 323.831 34.65 323.994 35.1875C324.069 35.4375 324.275 35.625 324.537 35.625H324.725C325.137 35.625 325.431 35.2188 325.287 34.8313C325.025 34.0938 324.412 33.4813 323.437 33.2438V32.8125C323.437 32.2938 323.019 31.875 322.5 31.875C321.981 31.875 321.562 32.2938 321.562 32.8125V33.225C320.35 33.4875 319.375 34.275 319.375 35.4813C319.375 36.925 320.569 37.6438 322.312 38.0625C323.875 38.4375 324.187 38.9875 324.187 39.5688C324.187 40 323.881 40.6875 322.5 40.6875C321.469 40.6875 320.937 40.3188 320.731 39.7938C320.637 39.55 320.425 39.375 320.169 39.375H319.994C319.575 39.375 319.281 39.8 319.437 40.1875C319.794 41.0563 320.625 41.5688 321.562 41.7688V42.1875C321.562 42.7063 321.981 43.125 322.5 43.125C323.019 43.125 323.437 42.7063 323.437 42.1875V41.7813C324.656 41.55 325.625 40.8438 325.625 39.5625C325.625 37.7875 324.106 37.1813 322.687 36.8125Z" fill="#76F536"/>
<path d="M326.737 4.62917C324.94 4.16208 324.362 3.67917 324.362 2.92708C324.362 2.06417 325.162 1.4625 326.5 1.4625C327.624 1.4625 328.186 1.89 328.392 2.57083C328.487 2.8875 328.748 3.125 329.081 3.125H329.318C329.841 3.125 330.213 2.61042 330.031 2.11958C329.698 1.18542 328.922 0.409583 327.687 0.10875V-0.4375C327.687 -1.09458 327.157 -1.625 326.5 -1.625C325.843 -1.625 325.312 -1.09458 325.312 -0.4375V0.0850002C323.777 0.4175 322.542 1.415 322.542 2.94292C322.542 4.77167 324.054 5.68208 326.262 6.2125C328.242 6.6875 328.637 7.38417 328.637 8.12042C328.637 8.66667 328.25 9.5375 326.5 9.5375C325.194 9.5375 324.521 9.07042 324.26 8.40542C324.141 8.09667 323.872 7.875 323.547 7.875H323.325C322.795 7.875 322.423 8.41333 322.621 8.90417C323.072 10.0046 324.125 10.6538 325.312 10.9071V11.4375C325.312 12.0946 325.843 12.625 326.5 12.625C327.157 12.625 327.687 12.0946 327.687 11.4375V10.9229C329.231 10.63 330.458 9.73542 330.458 8.1125C330.458 5.86417 328.535 5.09625 326.737 4.62917Z" fill="#76F536"/>
<path fill-rule="evenodd" clip-rule="evenodd" d="M37.7383 12.4787L46.5735 9.29294C47.2677 9.04263 48.0405 9.4058 48.2908 10.1L51.4766 18.9352C51.7269 19.6294 51.3637 20.4022 50.6695 20.6525L41.8343 23.8383C41.1401 24.0886 40.3674 23.7254 40.1171 23.0312L36.9313 14.196C36.681 13.5018 37.0441 12.729 37.7383 12.4787ZM41.4414 20.7711C41.6303 21.2949 42.2056 21.5653 42.7294 21.3764C43.2532 21.1875 43.5235 20.6122 43.3347 20.0884C43.1458 19.5646 42.5705 19.2943 42.0467 19.4831C41.5229 19.672 41.2525 20.2473 41.4414 20.7711ZM40.6814 15.6967C40.1576 15.8856 39.5823 15.6152 39.3934 15.0914C39.2045 14.5676 39.4749 13.9923 39.9987 13.8034C40.5225 13.6146 41.0978 13.8849 41.2867 14.4087C41.4755 14.9325 41.2052 15.5078 40.6814 15.6967ZM43.2573 16.9071C43.4462 17.4309 44.0215 17.7013 44.5453 17.5124C45.0691 17.3235 45.3394 16.7482 45.1506 16.2244C44.9617 15.7006 44.3864 15.4303 43.8626 15.6191C43.3388 15.808 43.0684 16.3833 43.2573 16.9071ZM48.4091 19.3284C47.8853 19.5173 47.3101 19.2469 47.1212 18.7231C46.9323 18.1993 47.2027 17.624 47.7265 17.4352C48.2503 17.2463 48.8256 17.5167 49.0144 18.0405C49.2033 18.5643 48.9329 19.1396 48.4091 19.3284ZM45.0732 13.0434C45.2621 13.5672 45.8373 13.8376 46.3611 13.6487C46.8849 13.4599 47.1553 12.8846 46.9664 12.3608C46.7776 11.837 46.2023 11.5666 45.6785 11.7555C45.1547 11.9444 44.8843 12.5196 45.0732 13.0434Z" fill="#76F536"/>
<path fill-rule="evenodd" clip-rule="evenodd" d="M1.94402 22.6827L17.139 25.4258C18.3328 25.6414 19.1333 26.7945 18.9178 27.9884L16.1746 43.1834C15.9591 44.3773 14.8059 45.1777 13.612 44.9622L-1.58294 42.219C-2.77682 42.0035 -3.57729 40.8503 -3.36176 39.6564L-0.618569 24.4615C-0.403032 23.2676 0.750133 22.4671 1.94402 22.6827ZM0.38415 37.5313C0.221518 38.4322 0.817423 39.2906 1.71827 39.4533C2.61911 39.6159 3.47758 39.02 3.64021 38.1191C3.80284 37.2183 3.20693 36.3598 2.30609 36.1972C1.40525 36.0346 0.546782 36.6305 0.38415 37.5313ZM3.48175 29.685C2.5809 29.5223 1.985 28.6639 2.14763 27.763C2.31026 26.8622 3.16873 26.2663 4.06957 26.4289C4.97042 26.5915 5.56632 27.45 5.40369 28.3508C5.24106 29.2517 4.38259 29.8476 3.48175 29.685ZM6.14998 33.529C5.98735 34.4298 6.58325 35.2883 7.48409 35.4509C8.38494 35.6136 9.2434 35.0177 9.40604 34.1168C9.56867 33.216 8.97276 32.3575 8.07192 32.1949C7.17108 32.0323 6.31261 32.6282 6.14998 33.529ZM11.4864 41.2164C10.5856 41.0538 9.98969 40.1953 10.1523 39.2944C10.315 38.3936 11.1734 37.7977 12.0743 37.9603C12.9751 38.123 13.571 38.9814 13.4084 39.8823C13.2458 40.7831 12.3873 41.379 11.4864 41.2164ZM11.9158 29.5262C11.7532 30.427 12.3491 31.2855 13.2499 31.4481C14.1508 31.6107 15.0092 31.0148 15.1719 30.114C15.3345 29.2131 14.7386 28.3547 13.8377 28.192C12.9369 28.0294 12.0784 28.6253 11.9158 29.5262Z" fill="#76F536"/>
<path fill-rule="evenodd" clip-rule="evenodd" d="M284.434 29.8719L300.491 26.6065C301.752 26.3499 302.994 27.1722 303.251 28.4338L306.516 44.4903C306.773 45.7518 305.951 46.994 304.689 47.2505L288.633 50.516C287.371 50.7725 286.129 49.9502 285.872 48.6887L282.607 32.6322C282.35 31.3706 283.173 30.1285 284.434 29.8719ZM288.73 45.122C288.923 46.0739 289.848 46.6861 290.8 46.4925C291.752 46.2989 292.364 45.3742 292.171 44.4223C291.977 43.4703 291.052 42.8582 290.1 43.0518C289.148 43.2454 288.536 44.1701 288.73 45.122ZM288.701 36.17C287.749 36.3636 286.824 35.7515 286.631 34.7995C286.437 33.8476 287.049 32.9229 288.001 32.7293C288.953 32.5357 289.878 33.1479 290.071 34.0998C290.265 35.0517 289.653 35.9764 288.701 36.17ZM292.841 38.9113C293.035 39.8632 293.96 40.4753 294.912 40.2817C295.863 40.0881 296.476 39.1634 296.282 38.2115C296.088 37.2596 295.164 36.6475 294.212 36.8411C293.26 37.0346 292.648 37.9593 292.841 38.9113ZM301.122 44.3929C300.17 44.5865 299.246 43.9743 299.052 43.0224C298.858 42.0705 299.47 41.1458 300.422 40.9522C301.374 40.7586 302.299 41.3708 302.493 42.3227C302.686 43.2746 302.074 44.1993 301.122 44.3929ZM296.953 32.7005C297.146 33.6524 298.071 34.2646 299.023 34.071C299.975 33.8774 300.587 32.9527 300.393 32.0008C300.2 31.0489 299.275 30.4367 298.323 30.6303C297.371 30.8239 296.759 31.7486 296.953 32.7005Z" fill="#76F536"/>
<path fill-rule="evenodd" clip-rule="evenodd" d="M304.293 6.56004L315.564 10.1761C316.45 10.4602 316.942 11.4172 316.658 12.3028L313.042 23.5736C312.757 24.4592 311.8 24.9513 310.915 24.6672L299.644 21.0511C298.759 20.767 298.266 19.8099 298.551 18.9244L302.167 7.65357C302.451 6.76801 303.408 6.27592 304.293 6.56004ZM301.611 17.6866C301.397 18.3548 301.763 19.0672 302.432 19.2816C303.1 19.496 303.812 19.1297 304.027 18.4615C304.241 17.7933 303.875 17.0808 303.206 16.8664C302.538 16.652 301.826 17.0184 301.611 17.6866ZM304.756 12.036C304.088 11.8216 303.722 11.1092 303.936 10.441C304.15 9.77279 304.863 9.40646 305.531 9.62084C306.199 9.83522 306.566 10.5477 306.351 11.2159C306.137 11.8841 305.424 12.2504 304.756 12.036ZM306.397 15.2261C306.182 15.8943 306.548 16.6068 307.217 16.8211C307.885 17.0355 308.597 16.6692 308.812 16.001C309.026 15.3328 308.66 14.6203 307.992 14.406C307.323 14.1916 306.611 14.5579 306.397 15.2261ZM309.677 21.6063C309.009 21.3919 308.643 20.6794 308.857 20.0112C309.071 19.343 309.784 18.9767 310.452 19.1911C311.12 19.4055 311.487 20.1179 311.272 20.7861C311.058 21.4543 310.345 21.8206 309.677 21.6063ZM311.182 12.7656C310.967 13.4338 311.334 14.1463 312.002 14.3607C312.67 14.575 313.382 14.2087 313.597 13.5405C313.811 12.8723 313.445 12.1599 312.777 11.9455C312.108 11.7311 311.396 12.0974 311.182 12.7656Z" fill="#76F536"/>
</g>
</g>
<defs>
<clipPath id="clip0_537_2710">
<rect width="328" height="44" rx="16" fill="white"/>
</clipPath>
</defs>
</svg>
