<svg width="16" height="15" viewBox="0 0 16 15" fill="none" xmlns="http://www.w3.org/2000/svg">
<path d="M3.33512 13.4295C3.43623 13.4821 3.54974 13.5062 3.66349 13.4991C3.77723 13.4921 3.88691 13.4542 3.98075 13.3895L12.1057 7.76452C12.1888 7.707 12.2566 7.63021 12.3035 7.54074C12.3503 7.45126 12.3748 7.35177 12.3748 7.25077C12.3748 7.14976 12.3503 7.05027 12.3035 6.96079C12.2566 6.87132 12.1888 6.79454 12.1057 6.73702L3.98075 1.11202C3.88698 1.04714 3.77725 1.00914 3.66344 1.00215C3.54963 0.995161 3.43608 1.01944 3.33508 1.07235C3.23408 1.12527 3.14947 1.20481 3.09043 1.30235C3.03139 1.3999 3.00016 1.51174 3.00012 1.62577V12.8758C3.0001 12.9899 3.03131 13.1018 3.09036 13.1994C3.14942 13.297 3.23406 13.3766 3.33512 13.4295Z" fill="#1A66FF"/>
</svg>
