<svg width="25" height="24" viewBox="0 0 25 24" fill="none" xmlns="http://www.w3.org/2000/svg">
<path fill-rule="evenodd" clip-rule="evenodd" d="M5.5 3H19.5C20.6 3 21.5 3.9 21.5 5V19C21.5 20.1 20.6 21 19.5 21H5.5C4.4 21 3.5 20.1 3.5 19V5C3.5 3.9 4.4 3 5.5 3ZM6.5 16.5C6.5 17.33 7.17 18 8 18C8.83 18 9.5 17.33 9.5 16.5C9.5 15.67 8.83 15 8 15C7.17 15 6.5 15.67 6.5 16.5ZM8 9C7.17 9 6.5 8.33 6.5 7.5C6.5 6.67 7.17 6 8 6C8.83 6 9.5 6.67 9.5 7.5C9.5 8.33 8.83 9 8 9ZM11 12C11 12.83 11.67 13.5 12.5 13.5C13.33 13.5 14 12.83 14 12C14 11.17 13.33 10.5 12.5 10.5C11.67 10.5 11 11.17 11 12ZM17 18C16.17 18 15.5 17.33 15.5 16.5C15.5 15.67 16.17 15 17 15C17.83 15 18.5 15.67 18.5 16.5C18.5 17.33 17.83 18 17 18ZM15.5 7.5C15.5 8.33 16.17 9 17 9C17.83 9 18.5 8.33 18.5 7.5C18.5 6.67 17.83 6 17 6C16.17 6 15.5 6.67 15.5 7.5Z" fill="white"/>
</svg>
