<svg width="16" height="16" viewBox="0 0 16 16" fill="none" xmlns="http://www.w3.org/2000/svg">
<g clip-path="url(#clip0_470_2893)">
<path d="M8.00012 16.001C3.58892 16.001 0.00012207 12.4124 0.00012207 8.00098C0.00012207 3.58951 3.58892 0.000976562 8.00012 0.000976562C12.4113 0.000976562 16.0001 3.58951 16.0001 8.00098C16.0001 12.4124 12.4113 16.001 8.00012 16.001ZM8.00012 1.06764C4.17692 1.06764 1.06679 4.17804 1.06679 8.00098C1.06679 11.8239 4.17692 14.9343 8.00012 14.9343C11.8233 14.9343 14.9335 11.8239 14.9335 8.00098C14.9335 4.17804 11.8233 1.06764 8.00012 1.06764Z" fill="#C7C9D1"/>
<path d="M8.00012 13.3341C5.05922 13.3341 2.66679 10.9415 2.66679 8.00081C2.66679 5.06017 5.05922 2.66748 8.00012 2.66748C10.941 2.66748 13.3335 5.06017 13.3335 8.00081C13.3335 10.9415 10.941 13.3341 8.00012 13.3341ZM8.00012 3.73415C5.64754 3.73415 3.73346 5.64823 3.73346 8.00081C3.73346 10.3534 5.64754 12.2675 8.00012 12.2675C10.3527 12.2675 12.2668 10.3534 12.2668 8.00081C12.2668 5.64823 10.3527 3.73415 8.00012 3.73415Z" fill="#C7C9D1"/>
<path d="M7.46679 0.53418H8.53346V3.20085H7.46679V0.53418Z" fill="#36363D"/>
<path d="M7.46679 12.8008H8.53346V15.4674H7.46679V12.8008Z" fill="#36363D"/>
<path d="M0.533455 7.46777H3.20012V8.53444H0.533455V7.46777Z" fill="#36363D"/>
<path d="M12.8001 7.46777H15.4668V8.53444H12.8001V7.46777Z" fill="#36363D"/>
<path d="M11.0159 4.23047L12.9015 2.34485L13.6557 3.0991L11.7701 4.98472L11.0159 4.23047Z" fill="#36363D"/>
<path d="M2.3421 12.9023L4.22772 11.0167L4.98196 11.771L3.09635 13.6566L2.3421 12.9023Z" fill="#36363D"/>
<path d="M2.34282 3.09863L3.09707 2.34439L4.98268 4.23L4.22844 4.98425L2.34282 3.09863Z" fill="#36363D"/>
<path d="M11.0146 11.7734L11.7688 11.0192L13.6545 12.9048L12.9002 13.6591L11.0146 11.7734Z" fill="#36363D"/>
</g>
<defs>
<clipPath id="clip0_470_2893">
<rect width="16" height="16" fill="white" transform="translate(0.00012207 0.000976562)"/>
</clipPath>
</defs>
</svg>
