<svg width="19" height="20" viewBox="0 0 19 20" fill="none" xmlns="http://www.w3.org/2000/svg">
<path d="M9.49969 13.1667C9.31471 13.167 9.13545 13.1026 8.99302 12.9846L4.24302 9.02627C4.08135 8.89189 3.97968 8.69879 3.96038 8.48945C3.94108 8.28012 4.00573 8.07169 4.14011 7.91001C4.27448 7.74834 4.46758 7.64667 4.67692 7.62737C4.88625 7.60807 5.09468 7.67272 5.25636 7.8071L9.49969 11.3538L13.743 7.93377C13.824 7.868 13.9172 7.8189 14.0172 7.78926C14.1172 7.75963 14.2221 7.75005 14.3258 7.76109C14.4296 7.77213 14.5301 7.80355 14.6216 7.85356C14.7132 7.90358 14.7939 7.97119 14.8593 8.05251C14.9318 8.13392 14.9867 8.22941 15.0206 8.33302C15.0544 8.43663 15.0666 8.54612 15.0561 8.65462C15.0457 8.76313 15.013 8.86832 14.9601 8.96361C14.9071 9.05889 14.8351 9.14221 14.7484 9.20835L9.99844 13.0321C9.85191 13.1315 9.67631 13.1788 9.49969 13.1667Z" fill="#E5E5E6"/>
</svg>
