<svg width="24" height="24" viewBox="0 0 24 24" fill="none" xmlns="http://www.w3.org/2000/svg">
<path d="M4.68138 5.25681H19.3186C19.4508 5.25685 19.5802 5.29534 19.6909 5.36759C19.8016 5.43984 19.8889 5.54274 19.9422 5.66374C19.9955 5.78474 20.0124 5.91862 19.991 6.04908C19.9695 6.17953 19.9105 6.30093 19.8213 6.39848L14.2237 12.5584C14.1072 12.6831 14.0431 12.8478 14.0448 13.0185V17.8407C14.0458 17.954 14.0183 18.0657 13.9646 18.1655C13.911 18.2653 13.8331 18.3499 13.7381 18.4116L11.0117 20.2263C10.9094 20.2937 10.7909 20.3322 10.6686 20.338C10.5462 20.3437 10.4246 20.3163 10.3165 20.2588C10.2084 20.2012 10.1178 20.1156 10.0542 20.011C9.99066 19.9063 9.95646 19.7865 9.95522 19.664V13.0185C9.95686 12.8478 9.8928 12.6831 9.7763 12.5584L4.1787 6.39848C4.08946 6.30093 4.03051 6.17953 4.00905 6.04908C3.98758 5.91862 4.00451 5.78474 4.05779 5.66374C4.11107 5.54274 4.19838 5.43984 4.3091 5.36759C4.41982 5.29534 4.54917 5.25685 4.68138 5.25681V5.25681Z" stroke="white" stroke-width="1.5" stroke-linecap="round" stroke-linejoin="round"/>
</svg>
