<svg width="16" height="16" viewBox="0 0 16 16" fill="none" xmlns="http://www.w3.org/2000/svg">
<path fill-rule="evenodd" clip-rule="evenodd" d="M5.02487 4.1033C5.23821 4.30997 5.09154 4.66997 4.79154 4.66997H3.93154V11.3366H4.79154C5.09154 11.3366 5.23821 11.6966 5.03154 11.9033L3.50487 13.43C3.37154 13.5633 3.16487 13.5633 3.03154 13.43L1.50487 11.9033C1.29154 11.6966 1.43821 11.3366 1.73821 11.3366H2.59821V4.66997H1.73821C1.43821 4.66997 1.29154 4.30997 1.49821 4.1033L3.02487 2.56997C3.15821 2.43664 3.36487 2.43664 3.49821 2.56997L5.02487 4.1033ZM13.9315 4.66997H7.26487C6.89821 4.66997 6.59821 4.36997 6.59821 4.0033C6.59821 3.63664 6.89821 3.33664 7.26487 3.33664H13.9315C14.2982 3.33664 14.5982 3.63664 14.5982 4.0033C14.5982 4.36997 14.2982 4.66997 13.9315 4.66997ZM13.9315 11.3366H7.26487C6.89821 11.3366 6.59821 11.6366 6.59821 12.0033C6.59821 12.37 6.89821 12.67 7.26487 12.67H13.9315C14.2982 12.67 14.5982 12.37 14.5982 12.0033C14.5982 11.6366 14.2982 11.3366 13.9315 11.3366ZM7.26487 7.33664H13.9315C14.2982 7.33664 14.5982 7.63664 14.5982 8.0033C14.5982 8.36997 14.2982 8.66997 13.9315 8.66997H7.26487C6.89821 8.66997 6.59821 8.36997 6.59821 8.0033C6.59821 7.63664 6.89821 7.33664 7.26487 7.33664Z" fill="#A1A3AD"/>
</svg>
