<svg width="16" height="16" viewBox="0 0 16 16" fill="none" xmlns="http://www.w3.org/2000/svg">
<g clip-path="url(#clip0_470_2909)">
<path d="M14.8387 5.95764L14.0585 5.82532C13.989 5.63196 13.9105 5.44226 13.8237 5.25781L14.2832 4.61499C14.683 4.05334 14.6188 3.2948 14.1321 2.81287L13.1945 1.87512C12.9294 1.61011 12.5781 1.46411 12.2053 1.46411C11.9117 1.46411 11.631 1.55457 11.3954 1.72412L10.7501 2.18372C10.5505 2.08936 10.348 2.00598 10.1442 1.93396L10.0151 1.16943C9.90161 0.49231 9.3208 0.000976562 8.63403 0.000976562H7.30933C6.62268 0.000976562 6.04187 0.49231 5.92859 1.16809L5.79297 1.96252C5.60144 2.03247 5.4126 2.11194 5.22766 2.20068L4.59412 1.74438C4.35657 1.57336 4.07471 1.48303 3.77893 1.48303C3.40247 1.48303 3.05103 1.62927 2.78894 1.8949L1.84912 2.83167C1.36377 3.31702 1.30017 4.07495 1.698 4.63379L2.16492 5.28979C2.07886 5.47498 2.00146 5.66553 1.93311 5.85999L1.16846 5.98901C0.491455 6.10266 0.00012207 6.68347 0.00012207 7.37012V8.69482C0.00012207 9.38147 0.491455 9.96228 1.16724 10.0757L1.96167 10.2112C2.03162 10.4028 2.11121 10.5918 2.19983 10.7766L1.74524 11.4089C1.34546 11.9706 1.40967 12.7292 1.89636 13.2111L2.83398 14.1488C3.099 14.4138 3.45032 14.5598 3.82312 14.5598C4.1167 14.5598 4.39746 14.4694 4.63293 14.2999L5.28894 13.833C5.4613 13.9131 5.64001 13.9865 5.82349 14.0525L5.95349 14.8326C6.06714 15.5096 6.64795 16.001 7.33459 16.001H8.66235C9.349 16.001 9.92993 15.5096 10.0433 14.8335L10.1757 14.0531C10.369 13.9836 10.5587 13.9052 10.7432 13.8184L11.3839 14.2764C11.6215 14.4474 11.9033 14.5378 12.1991 14.5378C12.5718 14.5378 12.9231 14.3918 13.1881 14.1268L14.1257 13.1891C14.6112 12.7037 14.6747 11.9458 14.2769 11.387L13.8169 10.7411C13.906 10.5524 13.9847 10.3628 14.0525 10.1743L14.8317 10.0444C15.5087 9.93079 16 9.34998 16 8.66333V7.34131C16.0077 6.65393 15.5199 6.07239 14.8387 5.95764ZM15.0625 8.66333C15.0625 8.89026 14.9001 9.08228 14.677 9.11975L13.6436 9.29199C13.4529 9.32373 13.2991 9.45825 13.2418 9.64319C13.15 9.94067 13.0239 10.2448 12.8673 10.5465C12.7787 10.7167 12.7928 10.9194 12.9042 11.0754L13.5132 11.9307C13.6445 12.1152 13.6234 12.3657 13.4629 12.5262L12.5253 13.4639C12.436 13.5531 12.3232 13.6003 12.1991 13.6003C12.1012 13.6003 12.0088 13.571 11.9304 13.5146L11.0789 12.906C10.9222 12.7936 10.7186 12.7794 10.5476 12.8689C10.2612 13.0188 9.95691 13.1449 9.64307 13.2434C9.45996 13.3008 9.32629 13.4541 9.29443 13.6428L9.1189 14.6774C9.08142 14.9011 8.8894 15.0635 8.66235 15.0635H7.33459C7.10754 15.0635 6.91565 14.9011 6.87817 14.678L6.70593 13.6445C6.67444 13.4551 6.54114 13.3015 6.35803 13.2437C6.04871 13.146 5.75415 13.0249 5.4823 12.8837C5.4082 12.8452 5.328 12.8263 5.24817 12.8263C5.1449 12.8263 5.04211 12.858 4.9541 12.9207L4.08728 13.5376C4.00916 13.5939 3.92029 13.6223 3.82312 13.6223C3.69897 13.6223 3.58618 13.5752 3.49695 13.4858L2.55762 12.5466C2.39734 12.3879 2.37695 12.1382 2.50769 11.9545L3.11304 11.1124C3.22693 10.9543 3.24084 10.7493 3.14905 10.5768C2.99512 10.2881 2.86755 9.98535 2.76978 9.67688C2.71191 9.495 2.5592 9.36206 2.37122 9.32996L1.32361 9.15137C1.09998 9.11377 0.937622 8.92175 0.937622 8.69482V7.37012C0.937622 7.14319 1.09998 6.95117 1.32397 6.91357L2.34473 6.74133C2.53552 6.70923 2.68921 6.57434 2.74597 6.38879C2.84229 6.07361 2.96619 5.7688 3.11426 5.48315C3.20239 5.31335 3.18823 5.11108 3.07727 4.95496L2.46179 4.09021C2.33032 3.90564 2.35144 3.65515 2.51147 3.49512L3.45227 2.5575L3.45569 2.55396C3.54028 2.4679 3.65503 2.42053 3.77893 2.42053C3.87683 2.42053 3.96936 2.44983 4.04626 2.50525L4.89197 3.11401C5.05029 3.22803 5.25562 3.2417 5.42749 3.1499C5.71619 2.99597 6.01892 2.86841 6.32703 2.77075C6.50891 2.71301 6.64185 2.56055 6.67419 2.37207L6.85291 1.32446C6.89038 1.10083 7.0824 0.938477 7.30945 0.938477H8.63416C8.86108 0.938477 9.0531 1.10083 9.0907 1.32483L9.26294 2.34595C9.29517 2.53687 9.4303 2.69043 9.61597 2.74707C9.9325 2.84326 10.2482 2.97314 10.5544 3.1333C10.7246 3.22217 10.9274 3.20825 11.0841 3.0968L11.9413 2.48633C12.0193 2.43005 12.1082 2.40161 12.2054 2.40161C12.3295 2.40161 12.4423 2.44873 12.5316 2.53809L13.4708 3.47729C13.6311 3.63599 13.6516 3.88574 13.52 4.07043L12.9108 4.92285C12.799 5.07959 12.785 5.28296 12.8743 5.45337C13.0243 5.73975 13.1503 6.04407 13.2489 6.35803C13.3064 6.54114 13.4596 6.67468 13.6483 6.70654L14.682 6.88196L14.6829 6.88208C14.9059 6.91956 15.0657 7.10876 15.0625 7.33203V8.66333Z" fill="#C7C9D1"/>
<path d="M8.00012 4.89014C6.28479 4.89014 4.88928 6.28564 4.88928 8.00098C4.88928 9.71631 6.28479 11.1118 8.00012 11.1118C9.71545 11.1118 11.111 9.71631 11.111 8.00098C11.111 6.28564 9.71545 4.89014 8.00012 4.89014ZM8.00012 10.1743C6.80176 10.1743 5.82678 9.19934 5.82678 8.00098C5.82678 6.80261 6.80176 5.82764 8.00012 5.82764C9.19849 5.82764 10.1735 6.80261 10.1735 8.00098C10.1735 9.19934 9.19849 10.1743 8.00012 10.1743Z" fill="#C7C9D1"/>
</g>
<defs>
<clipPath id="clip0_470_2909">
<rect width="16" height="16" fill="white" transform="translate(0.00012207 0.000976562)"/>
</clipPath>
</defs>
</svg>
