<svg width="16" height="17" viewBox="0 0 16 17" fill="none" xmlns="http://www.w3.org/2000/svg">
<path d="M10.6668 5.26857V12.3219C10.6668 13.7152 9.64678 14.9552 8.26012 15.0886C6.66678 15.2419 5.33345 13.9952 5.33345 12.4352V4.19524C5.33345 3.3219 5.96012 2.52857 6.82678 2.4419C7.82678 2.3419 8.66678 3.1219 8.66678 4.1019V11.1019C8.66678 11.4686 8.36678 11.7686 8.00012 11.7686C7.63345 11.7686 7.33345 11.4686 7.33345 11.1019V5.26857C7.33345 4.99524 7.10678 4.76857 6.83345 4.76857C6.56012 4.76857 6.33345 4.99524 6.33345 5.26857V11.0086C6.33345 11.8819 6.96012 12.6752 7.82678 12.7619C8.82678 12.8619 9.66678 12.0819 9.66678 11.1019V4.21524C9.66678 2.8219 8.64678 1.5819 7.26012 1.44857C5.67345 1.29524 4.33345 2.5419 4.33345 4.1019V12.2819C4.33345 14.1952 5.73345 15.9086 7.64012 16.0886C9.83345 16.2886 11.6668 14.5819 11.6668 12.4352V5.26857C11.6668 4.99524 11.4401 4.76857 11.1668 4.76857C10.8935 4.76857 10.6668 4.99524 10.6668 5.26857Z" fill="#3D77FF"/>
</svg>
