<svg width="17" height="16" viewBox="0 0 17 16" fill="none" xmlns="http://www.w3.org/2000/svg">
<path fill-rule="evenodd" clip-rule="evenodd" d="M8.5 1.33337C4.81999 1.33337 1.83333 4.32004 1.83333 8.00004C1.83333 11.68 4.81999 14.6667 8.5 14.6667C12.18 14.6667 15.1667 11.68 15.1667 8.00004C15.1667 4.32004 12.18 1.33337 8.5 1.33337ZM7.83333 4.66671V6.00004H9.16666V4.66671H7.83333ZM9.16666 10.6667C9.16666 11.0334 8.86666 11.3334 8.5 11.3334C8.13333 11.3334 7.83333 11.0334 7.83333 10.6667V8.00004C7.83333 7.63337 8.13333 7.33337 8.5 7.33337C8.86666 7.33337 9.16666 7.63337 9.16666 8.00004V10.6667ZM3.16666 8.00004C3.16666 10.94 5.55999 13.3334 8.49999 13.3334C11.44 13.3334 13.8333 10.94 13.8333 8.00004C13.8333 5.06004 11.44 2.66671 8.49999 2.66671C5.55999 2.66671 3.16666 5.06004 3.16666 8.00004Z" fill="#3D77FF"/>
</svg>
