<svg width="16" height="16" viewBox="0 0 16 16" fill="none" xmlns="http://www.w3.org/2000/svg">
<g clip-path="url(#clip0_470_2914)">
<path d="M4.01213 11.1534L3.56745 12.9441L7.53133 12.2998V15.9988H8.46888V12.2997L12.4328 12.9441L11.9881 11.1533L16.0001 8.03367L14.5846 7.35804L15.4818 4.5679L12.8873 5.17718L12.7497 3.55163L10.6608 5.45638L11.2679 1.63898L9.48465 2.26551L8.00011 0.00292969L6.5156 2.26551L4.73229 1.63898L5.33935 5.45638L3.25047 3.55163L3.11296 5.17718L0.518429 4.5679L1.41563 7.35804L0.00012207 8.0337L4.01213 11.1534ZM1.91865 5.85981L3.95566 6.33815L4.02435 5.52608L6.6857 7.95282L5.90519 3.0448L6.89699 3.39322L8.00011 1.71195L9.10319 3.39322L10.095 3.04477L9.31451 7.95282L11.9759 5.52608L12.0446 6.33815L14.0816 5.85981L13.4412 7.85116L14.2258 8.22568L10.9312 10.7875L11.1803 11.7906L8.00008 11.2737L4.81986 11.7906L5.06893 10.7875L1.77436 8.22568L2.559 7.85116L1.91865 5.85981Z" fill="#C7C9D1"/>
</g>
<defs>
<clipPath id="clip0_470_2914">
<rect width="16" height="16" fill="white" transform="translate(0.00012207 0.000976562)"/>
</clipPath>
</defs>
</svg>
