<svg width="16" height="16" viewBox="0 0 16 16" fill="none" xmlns="http://www.w3.org/2000/svg">
<path d="M8.20002 7.26667C6.68669 6.87333 6.20002 6.46667 6.20002 5.83333C6.20002 5.10667 6.87335 4.6 8.00002 4.6C8.94669 4.6 9.42002 4.96 9.59335 5.53333C9.67335 5.8 9.89335 6 10.1734 6H10.3734C10.8134 6 11.1267 5.56667 10.9734 5.15333C10.6934 4.36667 10.04 3.71333 9.00002 3.46V3C9.00002 2.44667 8.55335 2 8.00002 2C7.44669 2 7.00002 2.44667 7.00002 3V3.44C5.70669 3.72 4.66669 4.56 4.66669 5.84667C4.66669 7.38667 5.94002 8.15333 7.80002 8.6C9.46669 9 9.80002 9.58667 9.80002 10.2067C9.80002 10.6667 9.47335 11.4 8.00002 11.4C6.90002 11.4 6.33335 11.0067 6.11335 10.4467C6.01335 10.1867 5.78669 10 5.51335 10H5.32669C4.88002 10 4.56669 10.4533 4.73335 10.8667C5.11335 11.7933 6.00002 12.34 7.00002 12.5533V13C7.00002 13.5533 7.44669 14 8.00002 14C8.55335 14 9.00002 13.5533 9.00002 13V12.5667C10.3 12.32 11.3334 11.5667 11.3334 10.2C11.3334 8.30667 9.71335 7.66 8.20002 7.26667Z" fill="#A1A3AD"/>
</svg>
