<svg width="25" height="24" viewBox="0 0 25 24" fill="none" xmlns="http://www.w3.org/2000/svg">
<path d="M5.87549 13H17.0455L12.1655 17.88C11.7755 18.27 11.7755 18.91 12.1655 19.3C12.5555 19.69 13.1855 19.69 13.5755 19.3L20.1655 12.71C20.5555 12.32 20.5555 11.69 20.1655 11.3L13.5855 4.69996C13.3987 4.5127 13.145 4.40747 12.8805 4.40747C12.616 4.40747 12.3623 4.5127 12.1755 4.69996C11.7855 5.08996 11.7855 5.71996 12.1755 6.10996L17.0455 11H5.87549C5.32549 11 4.87549 11.45 4.87549 12C4.87549 12.55 5.32549 13 5.87549 13Z" fill="#C7C9D1" fill-opacity="0.1"/>
</svg>
