<svg width="16" height="16" viewBox="0 0 16 16" fill="none" xmlns="http://www.w3.org/2000/svg">
<path d="M12.1541 14.8244C12.0089 14.8242 11.8663 14.7863 11.7401 14.7144L8.00012 12.5771L4.26012 14.7144C4.11835 14.7955 3.9559 14.833 3.79296 14.8225C3.63001 14.812 3.47375 14.7538 3.34358 14.6553C3.2134 14.5567 3.11505 14.4221 3.06075 14.2681C3.00644 14.1141 2.99857 13.9475 3.03812 13.7891L4.11278 9.48777L1.54878 6.92377C1.43221 6.80723 1.35281 6.65873 1.32065 6.49706C1.28848 6.33538 1.30498 6.1678 1.36807 6.01551C1.43116 5.86322 1.53799 5.73306 1.67506 5.6415C1.81213 5.54993 1.97328 5.50107 2.13812 5.5011H5.67145L7.23478 1.85244C7.29882 1.70211 7.40564 1.57393 7.54195 1.48384C7.67826 1.39374 7.83805 1.3457 8.00145 1.3457C8.16485 1.3457 8.32464 1.39374 8.46095 1.48384C8.59726 1.57393 8.70408 1.70211 8.76812 1.85244L10.3294 5.5011H13.8628C14.0276 5.50107 14.1888 5.54993 14.3258 5.6415C14.4629 5.73306 14.5697 5.86322 14.6328 6.01551C14.6959 6.1678 14.7124 6.33538 14.6803 6.49706C14.6481 6.65873 14.5687 6.80723 14.4521 6.92377L11.8874 9.48777L12.9621 13.7884C12.9928 13.9113 12.9951 14.0395 12.9688 14.1634C12.9426 14.2872 12.8885 14.4035 12.8106 14.5033C12.7327 14.6032 12.6331 14.684 12.5194 14.7396C12.4057 14.7953 12.2807 14.8243 12.1541 14.8244ZM8.00012 11.5011C8.08718 11.5013 8.17269 11.5243 8.24812 11.5678L11.8974 13.6531L10.8481 9.45644C10.8274 9.37254 10.8288 9.28472 10.8522 9.20153C10.8756 9.11834 10.9201 9.04262 10.9814 8.98177L13.4608 6.50177H10.0001C9.90225 6.50179 9.80654 6.47304 9.72488 6.41911C9.64321 6.36518 9.5792 6.28845 9.54078 6.19844L8.00012 2.6011L6.45945 6.2011C6.42053 6.29049 6.3563 6.36653 6.27467 6.41984C6.19305 6.47315 6.09761 6.5014 6.00012 6.5011H2.54078L5.02012 8.9811C5.08146 9.04196 5.12599 9.11767 5.14936 9.20086C5.17272 9.28405 5.17413 9.37187 5.15345 9.45577L4.10412 13.6558L7.75345 11.5704C7.82823 11.5262 7.91326 11.5023 8.00012 11.5011Z" fill="#36363D"/>
</svg>
