<svg width="16" height="16" viewBox="0 0 16 16" fill="none" xmlns="http://www.w3.org/2000/svg">
<path d="M11.0974 4.70253L12.0574 5.66253L8.80404 8.91586L6.61071 6.72253C6.48615 6.5977 6.31705 6.52754 6.14071 6.52754C5.96436 6.52754 5.79526 6.5977 5.67071 6.72253L1.67071 10.7292C1.41071 10.9892 1.41071 11.4092 1.67071 11.6692C1.93071 11.9292 2.35071 11.9292 2.61071 11.6692L6.13737 8.13586L8.33071 10.3292C8.59071 10.5892 9.01071 10.5892 9.27071 10.3292L12.9974 6.6092L13.9574 7.5692C14.164 7.77586 14.524 7.6292 14.524 7.33586V4.4692C14.5307 4.28253 14.384 4.13586 14.1974 4.13586H11.3374C11.0374 4.13586 10.8907 4.49586 11.0974 4.70253Z" fill="#A1A3AD"/>
</svg>
