<svg width="16" height="16" viewBox="0 0 16 16" fill="none" xmlns="http://www.w3.org/2000/svg">
<g clip-path="url(#clip0_470_2889)">
<path d="M14.5368 3.99776H14.3377V2.06443C14.3377 1.25756 13.6812 0.601074 12.8743 0.601074H2.26053C1.08928 0.601074 0.123594 1.49694 0.012118 2.63938C-0.0049066 2.7201 0.00115566 2.0008 0.00115566 13.1419C0.00115566 14.3878 1.01468 15.4013 2.26049 15.4013H14.5367C15.3436 15.4013 16.0001 14.7448 16.0001 13.9379V5.46112C16.0001 4.65424 15.3437 3.99776 14.5368 3.99776ZM2.26053 1.60625H12.8743C13.127 1.60625 13.3325 1.8118 13.3325 2.06447V3.99779H2.26053C1.58856 3.99779 1.03846 3.46654 1.00781 2.80202C1.03843 2.13746 1.58853 1.60625 2.26053 1.60625ZM14.5368 14.3961H2.26053C1.56896 14.3961 1.00633 13.8335 1.00633 13.1419V4.62202C1.36538 4.86253 1.79684 5.0029 2.26053 5.0029H14.5368C14.7894 5.0029 14.995 5.20845 14.995 5.46112V7.49861H11.2129C9.92482 7.49861 8.8769 8.5465 8.8769 9.83456C8.8769 11.1226 9.92482 12.1705 11.2129 12.1705H14.995V13.9379C14.995 14.1906 14.7894 14.3961 14.5368 14.3961ZM14.995 11.1654H11.2129C10.4791 11.1654 9.88204 10.5684 9.88204 9.83459C9.88204 9.10077 10.479 8.50378 11.2129 8.50378H14.995V11.1654Z" fill="#C7C9D1"/>
</g>
<defs>
<clipPath id="clip0_470_2889">
<rect width="16" height="16" fill="white" transform="translate(0.00012207 0.000976562)"/>
</clipPath>
</defs>
</svg>
