<svg width="165" height="20" viewBox="0 0 165 20" fill="none" xmlns="http://www.w3.org/2000/svg">
<g clip-path="url(#clip0_669_129)">
<path d="M8.64198 10.6152C9.07093 10.53 9.34687 10.1264 9.25907 9.71062C9.17127 9.29483 8.75486 9.02736 8.3259 9.11247C7.89946 9.19757 7.62101 9.6012 7.70881 10.017C7.79661 10.4328 8.21302 10.6978 8.64198 10.6152Z" fill="white"/>
<path d="M7.01893 13.1585C7.44788 13.0734 7.72382 12.6698 7.63602 12.254C7.54822 11.8406 7.13181 11.5707 6.70286 11.6558C6.27641 11.7409 5.99797 12.1446 6.08576 12.5604C6.17356 12.9761 6.59248 13.2436 7.01893 13.1585Z" fill="white"/>
<path d="M5.03222 14.0509C4.87418 14.0826 4.73622 14.1579 4.63086 14.2601C4.66598 14.2965 4.69859 14.3306 4.73371 14.367C5.05981 14.7148 5.37087 15.06 5.67189 15.4053C5.90267 15.2327 6.02559 14.9433 5.96288 14.6491C5.87759 14.2333 5.45867 13.9658 5.03222 14.0509Z" fill="white"/>
<path d="M13.1672 5.86639C11.3661 3.97223 9.95627 2.1267 8.86507 0.5C7.77387 2.1267 6.36409 3.97223 4.56298 5.86639C2.98011 7.53199 1.4148 8.89608 0 10C1.01093 10.8073 2.0946 11.7458 3.20838 12.823L2.62641 10.0511C2.55868 9.73253 2.7719 9.41643 3.10303 9.35321L9.09084 8.16906C9.42196 8.1034 9.74556 8.31252 9.81078 8.63105L11.1027 14.7658C11.1704 15.0868 10.9572 15.398 10.626 15.4637L6.43433 16.2928C7.37 17.4137 8.17523 18.4958 8.86758 19.5C9.94875 17.9317 11.3058 16.1761 13.0016 14.3695C14.6447 12.6163 16.2652 11.172 17.7326 10C16.3153 8.89608 14.75 7.53199 13.1672 5.86639Z" fill="white"/>
<path d="M22.9981 17V3.90909H31.6657V6.19105H25.7659V9.31037H31.0905V11.5923H25.7659V17H22.9981ZM33.3181 17V7.18182H35.958V8.89489H36.0603C36.2393 8.28551 36.5397 7.82528 36.9616 7.5142C37.3834 7.19886 37.8692 7.04119 38.4189 7.04119C38.5553 7.04119 38.7023 7.04972 38.86 7.06676C39.0177 7.08381 39.1562 7.10724 39.2755 7.13707V9.55327C39.1476 9.51491 38.9708 9.48082 38.7449 9.45099C38.5191 9.42116 38.3124 9.40625 38.1249 9.40625C37.7243 9.40625 37.3664 9.49361 37.051 9.66832C36.74 9.83878 36.4928 10.0774 36.3096 10.3842C36.1306 10.6911 36.0411 11.0447 36.0411 11.4453V17H33.3181ZM44.7007 17.1918C43.6908 17.1918 42.8215 16.9872 42.0928 16.5781C41.3683 16.1648 40.8101 15.581 40.4181 14.8267C40.026 14.0682 39.83 13.1712 39.83 12.1357C39.83 11.1257 40.026 10.2393 40.4181 9.47656C40.8101 8.71378 41.3619 8.11932 42.0736 7.69318C42.7895 7.26705 43.629 7.05398 44.5921 7.05398C45.2398 7.05398 45.8428 7.15838 46.401 7.36719C46.9635 7.57173 47.4536 7.88068 47.8712 8.29403C48.2931 8.70739 48.6212 9.22727 48.8556 9.85369C49.0899 10.4759 49.2071 11.2045 49.2071 12.0398V12.7876H40.9166V11.1001H46.6439C46.6439 10.7081 46.5587 10.3608 46.3882 10.0582C46.2178 9.75568 45.9813 9.51918 45.6787 9.34872C45.3804 9.17401 45.0331 9.08665 44.6368 9.08665C44.2235 9.08665 43.857 9.18253 43.5374 9.37429C43.222 9.56179 42.9749 9.81534 42.7959 10.1349C42.6169 10.4503 42.5253 10.8018 42.521 11.1896V12.794C42.521 13.2798 42.6105 13.6996 42.7895 14.0533C42.9727 14.407 43.2306 14.6797 43.5629 14.8714C43.8953 15.0632 44.2895 15.1591 44.7455 15.1591C45.048 15.1591 45.325 15.1165 45.5764 15.0312C45.8279 14.946 46.0431 14.8182 46.222 14.6477C46.401 14.4773 46.5374 14.2685 46.6311 14.0213L49.1496 14.1875C49.0218 14.7926 48.7597 15.321 48.3634 15.7727C47.9713 16.2202 47.4642 16.5696 46.8421 16.821C46.2242 17.0682 45.5104 17.1918 44.7007 17.1918ZM55.4585 17.1918C54.4486 17.1918 53.5793 16.9872 52.8506 16.5781C52.1262 16.1648 51.5679 15.581 51.1759 14.8267C50.7838 14.0682 50.5878 13.1712 50.5878 12.1357C50.5878 11.1257 50.7838 10.2393 51.1759 9.47656C51.5679 8.71378 52.1198 8.11932 52.8314 7.69318C53.5473 7.26705 54.3868 7.05398 55.3499 7.05398C55.9976 7.05398 56.6006 7.15838 57.1588 7.36719C57.7213 7.57173 58.2114 7.88068 58.629 8.29403C59.0509 8.70739 59.379 9.22727 59.6134 9.85369C59.8477 10.4759 59.9649 11.2045 59.9649 12.0398V12.7876H51.6744V11.1001H57.4017C57.4017 10.7081 57.3165 10.3608 57.146 10.0582C56.9756 9.75568 56.7391 9.51918 56.4365 9.34872C56.1382 9.17401 55.7909 9.08665 55.3946 9.08665C54.9813 9.08665 54.6148 9.18253 54.2952 9.37429C53.9798 9.56179 53.7327 9.81534 53.5537 10.1349C53.3747 10.4503 53.2831 10.8018 53.2789 11.1896V12.794C53.2789 13.2798 53.3683 13.6996 53.5473 14.0533C53.7306 14.407 53.9884 14.6797 54.3208 14.8714C54.6531 15.0632 55.0473 15.1591 55.5033 15.1591C55.8058 15.1591 56.0828 15.1165 56.3343 15.0312C56.5857 14.946 56.8009 14.8182 56.9798 14.6477C57.1588 14.4773 57.2952 14.2685 57.3889 14.0213L59.9074 14.1875C59.7796 14.7926 59.5175 15.321 59.1212 15.7727C58.7291 16.2202 58.222 16.5696 57.5999 16.821C56.982 17.0682 56.2682 17.1918 55.4585 17.1918ZM73.0606 7.67401C73.0095 7.15838 72.79 6.75781 72.4023 6.4723C72.0145 6.18679 71.4882 6.04403 70.8234 6.04403C70.3717 6.04403 69.9903 6.10795 69.6792 6.2358C69.3682 6.35937 69.1295 6.53196 68.9633 6.75355C68.8014 6.97514 68.7204 7.22656 68.7204 7.50781C68.7119 7.74219 68.7609 7.94673 68.8675 8.12145C68.9782 8.29616 69.1295 8.44744 69.3213 8.57528C69.5131 8.69886 69.7346 8.80753 69.9861 8.90128C70.2375 8.99077 70.5059 9.06747 70.7915 9.13139L71.9676 9.41264C72.5386 9.54048 73.0628 9.71094 73.54 9.92401C74.0173 10.1371 74.4307 10.3991 74.7801 10.7102C75.1295 11.0213 75.4001 11.3878 75.5919 11.8097C75.7879 12.2315 75.8881 12.7152 75.8923 13.2607C75.8881 14.0618 75.6835 14.7564 75.2787 15.3445C74.8781 15.9283 74.2986 16.3821 73.54 16.706C72.7858 17.0256 71.876 17.1854 70.8106 17.1854C69.7538 17.1854 68.8334 17.0234 68.0493 16.6996C67.2694 16.3757 66.6601 15.8963 66.2211 15.2614C65.7865 14.6222 65.5585 13.8317 65.5372 12.8899H68.2155C68.2453 13.3288 68.371 13.6953 68.5926 13.9893C68.8184 14.2791 69.1189 14.4986 69.4939 14.6477C69.8731 14.7926 70.3014 14.8651 70.7787 14.8651C71.2474 14.8651 71.6544 14.7969 71.9996 14.6605C72.349 14.5241 72.6196 14.3345 72.8113 14.0916C73.0031 13.8487 73.099 13.5696 73.099 13.2543C73.099 12.9602 73.0116 12.7131 72.8369 12.5128C72.6665 12.3125 72.415 12.142 72.0827 12.0014C71.7545 11.8608 71.3518 11.733 70.8746 11.6179L69.4491 11.2599C68.3454 10.9915 67.474 10.5717 66.8348 10.0007C66.1956 9.42969 65.8781 8.66051 65.8824 7.69318C65.8781 6.90057 66.089 6.2081 66.5152 5.61577C66.9456 5.02344 67.5358 4.56108 68.2858 4.22869C69.0358 3.89631 69.8881 3.73011 70.8426 3.73011C71.8142 3.73011 72.6622 3.89631 73.3866 4.22869C74.1153 4.56108 74.6821 5.02344 75.0869 5.61577C75.4917 6.2081 75.7006 6.89418 75.7133 7.67401H73.0606ZM80.4259 3.90909V17H77.7029V3.90909H80.4259ZM87.0432 17.1918C86.0503 17.1918 85.1917 16.9808 84.4672 16.5589C83.7471 16.1328 83.191 15.5405 82.7989 14.782C82.4069 14.0192 82.2108 13.1349 82.2108 12.1293C82.2108 11.1151 82.4069 10.2287 82.7989 9.47017C83.191 8.70739 83.7471 8.11506 84.4672 7.69318C85.1917 7.26705 86.0503 7.05398 87.0432 7.05398C88.0361 7.05398 88.8927 7.26705 89.6128 7.69318C90.3373 8.11506 90.8955 8.70739 91.2876 9.47017C91.6796 10.2287 91.8756 11.1151 91.8756 12.1293C91.8756 13.1349 91.6796 14.0192 91.2876 14.782C90.8955 15.5405 90.3373 16.1328 89.6128 16.5589C88.8927 16.9808 88.0361 17.1918 87.0432 17.1918ZM87.056 15.0824C87.5077 15.0824 87.8849 14.9545 88.1874 14.6989C88.49 14.4389 88.718 14.0852 88.8714 13.6378C89.029 13.1903 89.1079 12.6811 89.1079 12.1101C89.1079 11.5391 89.029 11.0298 88.8714 10.5824C88.718 10.1349 88.49 9.78125 88.1874 9.52131C87.8849 9.26136 87.5077 9.13139 87.056 9.13139C86.6001 9.13139 86.2165 9.26136 85.9055 9.52131C85.5986 9.78125 85.3664 10.1349 85.2087 10.5824C85.0553 11.0298 84.9786 11.5391 84.9786 12.1101C84.9786 12.6811 85.0553 13.1903 85.2087 13.6378C85.3664 14.0852 85.5986 14.4389 85.9055 14.6989C86.2165 14.9545 86.6001 15.0824 87.056 15.0824ZM98.8685 7.18182V9.22727H92.9559V7.18182H98.8685ZM94.2982 4.82955H97.0212V13.983C97.0212 14.2344 97.0596 14.4304 97.1363 14.571C97.213 14.7074 97.3195 14.8033 97.4559 14.8587C97.5965 14.9141 97.7584 14.9418 97.9417 14.9418C98.0695 14.9418 98.1974 14.9311 98.3252 14.9098C98.453 14.8842 98.551 14.8651 98.6192 14.8523L99.0475 16.8786C98.9111 16.9212 98.7194 16.9702 98.4722 17.0256C98.2251 17.0852 97.9246 17.1214 97.5709 17.1342C96.9147 17.1598 96.3394 17.0724 95.8451 16.8722C95.355 16.6719 94.9736 16.3608 94.7009 15.9389C94.4282 15.517 94.2939 14.9844 94.2982 14.3409V4.82955ZM113.54 8.14062C113.45 7.82955 113.325 7.55469 113.163 7.31605C113.001 7.07315 112.803 6.86861 112.568 6.70241C112.338 6.53196 112.074 6.40199 111.776 6.3125C111.482 6.22301 111.156 6.17827 110.798 6.17827C110.129 6.17827 109.541 6.34446 109.033 6.67685C108.531 7.00923 108.139 7.4929 107.857 8.12784C107.576 8.75852 107.435 9.52983 107.435 10.4418C107.435 11.3537 107.574 12.1293 107.851 12.7685C108.128 13.4077 108.52 13.8956 109.027 14.2322C109.534 14.5646 110.133 14.7308 110.823 14.7308C111.45 14.7308 111.984 14.62 112.428 14.3984C112.875 14.1726 113.216 13.8551 113.45 13.446C113.689 13.0369 113.808 12.5533 113.808 11.995L114.371 12.0781H110.996V9.99432H116.474V11.6435C116.474 12.794 116.231 13.7827 115.745 14.6094C115.259 15.4318 114.59 16.0668 113.738 16.5142C112.886 16.9574 111.91 17.179 110.81 17.179C109.583 17.179 108.505 16.9084 107.576 16.3672C106.647 15.8217 105.923 15.0483 105.403 14.0469C104.887 13.0412 104.629 11.848 104.629 10.4673C104.629 9.40625 104.783 8.46023 105.09 7.62926C105.401 6.79403 105.835 6.08665 106.394 5.5071C106.952 4.92756 107.602 4.48651 108.343 4.18395C109.085 3.88139 109.888 3.73011 110.753 3.73011C111.494 3.73011 112.185 3.83878 112.824 4.05611C113.463 4.26918 114.03 4.57173 114.524 4.96378C115.023 5.35582 115.43 5.82244 115.745 6.36364C116.06 6.90057 116.263 7.4929 116.352 8.14062H113.54ZM121.301 17.1854C120.675 17.1854 120.117 17.0767 119.627 16.8594C119.137 16.6378 118.749 16.3118 118.463 15.8814C118.182 15.4467 118.041 14.9055 118.041 14.2578C118.041 13.7124 118.142 13.2543 118.342 12.8835C118.542 12.5128 118.815 12.2145 119.16 11.9886C119.505 11.7628 119.897 11.5923 120.336 11.4773C120.779 11.3622 121.244 11.2812 121.73 11.2344C122.301 11.1747 122.761 11.1193 123.11 11.0682C123.46 11.0128 123.713 10.9318 123.871 10.8253C124.029 10.7187 124.108 10.5611 124.108 10.3523V10.3139C124.108 9.90909 123.98 9.59588 123.724 9.37429C123.473 9.1527 123.115 9.0419 122.65 9.0419C122.16 9.0419 121.77 9.15057 121.48 9.3679C121.191 9.58097 120.999 9.84943 120.905 10.1733L118.387 9.96875C118.514 9.37216 118.766 8.85653 119.141 8.42188C119.516 7.98295 120 7.64631 120.592 7.41193C121.188 7.1733 121.879 7.05398 122.663 7.05398C123.208 7.05398 123.73 7.1179 124.229 7.24574C124.732 7.37358 125.177 7.57173 125.565 7.8402C125.957 8.10866 126.266 8.45384 126.492 8.87571C126.718 9.29332 126.831 9.79403 126.831 10.3778V17H124.248V15.6385H124.171C124.014 15.9453 123.803 16.2159 123.539 16.4503C123.274 16.6804 122.957 16.8615 122.586 16.9936C122.215 17.1214 121.787 17.1854 121.301 17.1854ZM122.081 15.3061C122.482 15.3061 122.835 15.2273 123.142 15.0696C123.449 14.9077 123.69 14.6903 123.865 14.4176C124.039 14.1449 124.127 13.8359 124.127 13.4908V12.4489C124.041 12.5043 123.924 12.5554 123.775 12.6023C123.63 12.6449 123.466 12.6854 123.283 12.7237C123.1 12.7578 122.916 12.7898 122.733 12.8196C122.55 12.8452 122.384 12.8686 122.235 12.8899C121.915 12.9368 121.636 13.0114 121.397 13.1136C121.159 13.2159 120.973 13.3544 120.841 13.5291C120.709 13.6996 120.643 13.9126 120.643 14.1683C120.643 14.5391 120.777 14.8224 121.046 15.0185C121.318 15.2102 121.664 15.3061 122.081 15.3061ZM128.943 17V7.18182H131.538V8.91406H131.653C131.858 8.33878 132.199 7.88494 132.676 7.55256C133.153 7.22017 133.724 7.05398 134.389 7.05398C135.062 7.05398 135.636 7.2223 136.109 7.55895C136.582 7.89133 136.897 8.34304 137.055 8.91406H137.157C137.357 8.35156 137.719 7.90199 138.244 7.56534C138.772 7.22443 139.396 7.05398 140.116 7.05398C141.033 7.05398 141.776 7.34588 142.347 7.92969C142.922 8.50923 143.21 9.33168 143.21 10.397V17H140.494V10.9339C140.494 10.3885 140.349 9.9794 140.059 9.70668C139.769 9.43395 139.407 9.29759 138.972 9.29759C138.478 9.29759 138.092 9.45526 137.815 9.7706C137.538 10.0817 137.4 10.4929 137.4 11.0043V17H134.76V10.8764C134.76 10.3949 134.621 10.0114 134.344 9.72585C134.072 9.44034 133.712 9.29759 133.264 9.29759C132.962 9.29759 132.689 9.37429 132.446 9.5277C132.207 9.67685 132.018 9.88778 131.877 10.1605C131.736 10.429 131.666 10.7443 131.666 11.1065V17H128.943ZM149.835 17.1918C148.826 17.1918 147.956 16.9872 147.228 16.5781C146.503 16.1648 145.945 15.581 145.553 14.8267C145.161 14.0682 144.965 13.1712 144.965 12.1357C144.965 11.1257 145.161 10.2393 145.553 9.47656C145.945 8.71378 146.497 8.11932 147.208 7.69318C147.924 7.26705 148.764 7.05398 149.727 7.05398C150.375 7.05398 150.978 7.15838 151.536 7.36719C152.098 7.57173 152.588 7.88068 153.006 8.29403C153.428 8.70739 153.756 9.22727 153.99 9.85369C154.225 10.4759 154.342 11.2045 154.342 12.0398V12.7876H146.051V11.1001H151.779C151.779 10.7081 151.693 10.3608 151.523 10.0582C151.353 9.75568 151.116 9.51918 150.813 9.34872C150.515 9.17401 150.168 9.08665 149.772 9.08665C149.358 9.08665 148.992 9.18253 148.672 9.37429C148.357 9.56179 148.11 9.81534 147.931 10.1349C147.752 10.4503 147.66 10.8018 147.656 11.1896V12.794C147.656 13.2798 147.745 13.6996 147.924 14.0533C148.108 14.407 148.365 14.6797 148.698 14.8714C149.03 15.0632 149.424 15.1591 149.88 15.1591C150.183 15.1591 150.46 15.1165 150.711 15.0312C150.963 14.946 151.178 14.8182 151.357 14.6477C151.536 14.4773 151.672 14.2685 151.766 14.0213L154.284 14.1875C154.157 14.7926 153.894 15.321 153.498 15.7727C153.106 16.2202 152.599 16.5696 151.977 16.821C151.359 17.0682 150.645 17.1918 149.835 17.1918ZM164.288 9.98153L161.795 10.1349C161.752 9.92187 161.661 9.73011 161.52 9.55966C161.38 9.38494 161.194 9.24645 160.964 9.14418C160.738 9.03764 160.468 8.98438 160.152 8.98438C159.73 8.98438 159.375 9.07386 159.085 9.25284C158.795 9.42756 158.65 9.66193 158.65 9.95597C158.65 10.1903 158.744 10.3885 158.931 10.5504C159.119 10.7124 159.441 10.8423 159.897 10.9403L161.674 11.2983C162.628 11.4943 163.34 11.8097 163.809 12.2443C164.277 12.679 164.512 13.25 164.512 13.9574C164.512 14.6009 164.322 15.1655 163.943 15.6513C163.568 16.1371 163.052 16.5163 162.396 16.7891C161.744 17.0575 160.992 17.1918 160.139 17.1918C158.84 17.1918 157.804 16.9212 157.033 16.38C156.266 15.8345 155.816 15.093 155.684 14.1555L158.362 14.0149C158.443 14.4112 158.639 14.7138 158.951 14.9226C159.262 15.1271 159.66 15.2294 160.146 15.2294C160.623 15.2294 161.007 15.1378 161.296 14.9545C161.59 14.767 161.74 14.5263 161.744 14.2322C161.74 13.9851 161.635 13.7827 161.431 13.625C161.226 13.4631 160.911 13.3395 160.485 13.2543L158.784 12.9155C157.826 12.7237 157.112 12.3913 156.643 11.9183C156.179 11.4453 155.946 10.8423 155.946 10.1094C155.946 9.47869 156.117 8.93537 156.458 8.4794C156.803 8.02344 157.286 7.67188 157.909 7.42472C158.535 7.17756 159.268 7.05398 160.108 7.05398C161.348 7.05398 162.323 7.31605 163.035 7.8402C163.751 8.36435 164.169 9.07812 164.288 9.98153Z" fill="white"/>
</g>
<defs>
<clipPath id="clip0_669_129">
<rect width="165" height="20" fill="white"/>
</clipPath>
</defs>
</svg>
